<svg width="136" height="181" viewBox="0 0 136 181" fill="none" xmlns="http://www.w3.org/2000/svg">
<path d="M61.0116 177.348C9.55188 102.884 0 95.2417 0 67.875C0 30.3885 30.4445 0 68 0C105.555 0 136 30.3885 136 67.875C136 95.2417 126.448 102.884 74.9884 177.348C71.6114 182.217 64.3882 182.217 61.0116 177.348ZM68 96.1562C83.6481 96.1562 96.3333 83.4944 96.3333 67.875C96.3333 52.2556 83.6481 39.5937 68 39.5937C52.3519 39.5937 39.6667 52.2556 39.6667 67.875C39.6667 83.4944 52.3519 96.1562 68 96.1562Z" fill="black"/>
</svg>
